<svg xmlns="http://www.w3.org/2000/svg" xmlns:xlink="http://www.w3.org/1999/xlink" width="6912" zoomAndPan="magnify" viewBox="0 0 5184 2592.000001" height="3456" preserveAspectRatio="xMidYMid meet" version="1.0"><defs><g/><clipPath id="12e047b71e"><rect x="0" width="5161" y="0" height="1786"/></clipPath></defs><g transform="matrix(1, 0, 0, 1, 1, 309)"><g clip-path="url(#12e047b71e)"><g fill="#1e1d1d" fill-opacity="1"><g transform="translate(-21.512722, 1371.181009)"><g><path d="M 990.28125 -1247.21875 C 993.84375 -1247.21875 995.625 -1245.429688 995.625 -1241.859375 L 995.625 -943.890625 C 995.625 -940.316406 993.84375 -938.53125 990.28125 -938.53125 C 985.519531 -938.53125 983.140625 -940.316406 983.140625 -943.890625 C 983.140625 -997.410156 970.050781 -1046.175781 943.875 -1090.1875 C 917.707031 -1134.207031 882.617188 -1169.300781 838.609375 -1195.46875 C 794.597656 -1221.632812 745.828125 -1234.71875 692.296875 -1234.71875 L 355.078125 -1234.71875 L 355.078125 -80.296875 C 355.078125 -60.066406 362.210938 -42.519531 376.484375 -27.65625 C 390.753906 -12.789062 408.003906 -5.359375 428.234375 -5.359375 C 432.984375 -5.359375 435.359375 -3.570312 435.359375 0 C 435.359375 3.570312 432.984375 5.359375 428.234375 5.359375 L 80.296875 5.359375 C 76.722656 5.359375 74.9375 3.570312 74.9375 0 C 74.9375 -3.570312 76.722656 -5.359375 80.296875 -5.359375 C 101.703125 -5.359375 119.539062 -12.789062 133.8125 -27.65625 C 148.09375 -42.519531 155.234375 -60.066406 155.234375 -80.296875 L 155.234375 -1161.5625 C 155.234375 -1181.789062 148.09375 -1199.039062 133.8125 -1213.3125 C 119.539062 -1227.582031 101.703125 -1234.71875 80.296875 -1234.71875 C 76.722656 -1234.71875 74.9375 -1237.097656 74.9375 -1241.859375 C 74.9375 -1245.429688 76.722656 -1247.21875 80.296875 -1247.21875 Z M 685.15625 -838.609375 C 688.726562 -838.609375 690.515625 -836.226562 690.515625 -831.46875 L 690.515625 -408.59375 C 690.515625 -405.03125 688.726562 -403.25 685.15625 -403.25 C 680.40625 -403.25 678.03125 -405.03125 678.03125 -408.59375 C 678.03125 -446.664062 668.8125 -481.164062 650.375 -512.09375 C 631.9375 -543.019531 607.253906 -567.703125 576.328125 -586.140625 C 545.398438 -604.578125 510.898438 -613.796875 472.828125 -613.796875 C 469.265625 -613.796875 467.484375 -616.175781 467.484375 -620.9375 C 467.484375 -624.5 469.265625 -626.28125 472.828125 -626.28125 C 510.898438 -626.28125 545.398438 -635.5 576.328125 -653.9375 C 607.253906 -672.375 631.9375 -697.351562 650.375 -728.875 C 668.8125 -760.394531 678.03125 -794.59375 678.03125 -831.46875 C 678.03125 -836.226562 680.40625 -838.609375 685.15625 -838.609375 Z M 685.15625 -838.609375 "/></g></g></g><g fill="#1e1d1d" fill-opacity="1"><g transform="translate(1015.032009, 1371.181009)"><g><path d="M 990.28125 -303.328125 C 993.84375 -303.328125 995.625 -301.539062 995.625 -297.96875 L 995.625 0 C 995.625 3.570312 993.84375 5.359375 990.28125 5.359375 L 80.296875 5.359375 C 76.722656 5.359375 74.9375 3.570312 74.9375 0 C 74.9375 -3.570312 76.722656 -5.359375 80.296875 -5.359375 C 101.703125 -5.359375 119.539062 -12.789062 133.8125 -27.65625 C 148.09375 -42.519531 155.234375 -60.066406 155.234375 -80.296875 L 155.234375 -1161.5625 C 155.234375 -1181.789062 148.09375 -1199.039062 133.8125 -1213.3125 C 119.539062 -1227.582031 101.703125 -1234.71875 80.296875 -1234.71875 C 76.722656 -1234.71875 74.9375 -1237.097656 74.9375 -1241.859375 C 74.9375 -1245.429688 76.722656 -1247.21875 80.296875 -1247.21875 L 428.234375 -1247.21875 C 432.984375 -1247.21875 435.359375 -1245.429688 435.359375 -1241.859375 C 435.359375 -1237.097656 432.984375 -1234.71875 428.234375 -1234.71875 C 408.003906 -1234.71875 390.753906 -1227.582031 376.484375 -1213.3125 C 362.210938 -1199.039062 355.078125 -1181.789062 355.078125 -1161.5625 L 355.078125 -5.359375 L 692.296875 -5.359375 C 745.828125 -5.359375 794.597656 -18.738281 838.609375 -45.5 C 882.617188 -72.257812 917.707031 -107.644531 943.875 -151.65625 C 970.050781 -195.675781 983.140625 -244.445312 983.140625 -297.96875 C 983.140625 -301.539062 985.519531 -303.328125 990.28125 -303.328125 Z M 990.28125 -303.328125 "/></g></g></g><g fill="#1e1d1d" fill-opacity="1"><g transform="translate(2051.57674, 1371.181009)"><g><path d="M 694.078125 -1275.765625 C 779.722656 -1275.765625 860.015625 -1258.8125 934.953125 -1224.90625 C 1009.898438 -1191.007812 1075.625 -1144.023438 1132.125 -1083.953125 C 1188.625 -1023.878906 1232.929688 -954.289062 1265.046875 -875.1875 C 1297.171875 -796.082031 1313.234375 -711.332031 1313.234375 -620.9375 C 1313.234375 -531.71875 1297.171875 -447.554688 1265.046875 -368.453125 C 1232.929688 -289.347656 1188.625 -219.757812 1132.125 -159.6875 C 1075.625 -99.625 1009.898438 -52.640625 934.953125 -18.734375 C 860.015625 15.160156 779.722656 32.109375 694.078125 32.109375 C 608.429688 32.109375 528.4375 15.160156 454.09375 -18.734375 C 379.75 -52.640625 314.03125 -99.625 256.9375 -159.6875 C 199.84375 -219.757812 155.234375 -289.347656 123.109375 -368.453125 C 90.992188 -447.554688 74.9375 -531.71875 74.9375 -620.9375 C 74.9375 -711.332031 90.992188 -796.082031 123.109375 -875.1875 C 155.234375 -954.289062 199.84375 -1023.878906 256.9375 -1083.953125 C 314.03125 -1144.023438 379.75 -1191.007812 454.09375 -1224.90625 C 528.4375 -1258.8125 608.429688 -1275.765625 694.078125 -1275.765625 Z M 694.078125 19.625 C 748.796875 19.625 800.242188 2.972656 848.421875 -30.328125 C 896.597656 -63.640625 938.828125 -109.734375 975.109375 -168.609375 C 1011.390625 -227.492188 1039.640625 -295.59375 1059.859375 -372.90625 C 1080.085938 -450.226562 1090.203125 -532.90625 1090.203125 -620.9375 C 1090.203125 -710.144531 1080.085938 -793.40625 1059.859375 -870.71875 C 1039.640625 -948.039062 1011.390625 -1016.140625 975.109375 -1075.015625 C 938.828125 -1133.898438 896.597656 -1179.992188 848.421875 -1213.296875 C 800.242188 -1246.609375 748.796875 -1263.265625 694.078125 -1263.265625 C 639.367188 -1263.265625 588.222656 -1246.609375 540.640625 -1213.296875 C 493.054688 -1179.992188 450.828125 -1133.898438 413.953125 -1075.015625 C 377.078125 -1016.140625 348.523438 -948.039062 328.296875 -870.71875 C 308.078125 -793.40625 297.96875 -710.144531 297.96875 -620.9375 C 297.96875 -532.90625 308.078125 -450.226562 328.296875 -372.90625 C 348.523438 -295.59375 377.078125 -227.492188 413.953125 -168.609375 C 450.828125 -109.734375 493.054688 -63.640625 540.640625 -30.328125 C 588.222656 2.972656 639.367188 19.625 694.078125 19.625 Z M 694.078125 19.625 "/></g></g></g><g fill="#1e1d1d" fill-opacity="1"><g transform="translate(3441.367325, 1371.181009)"><g><path d="M 335.4375 -1163.34375 L 710.140625 -226.609375 C 710.140625 -225.410156 710.140625 -223.625 710.140625 -221.25 L 608.4375 30.328125 C 608.4375 30.328125 608.4375 30.921875 608.4375 32.109375 C 608.4375 32.109375 607.84375 32.109375 606.65625 32.109375 C 606.65625 32.109375 606.65625 32.707031 606.65625 33.90625 C 606.65625 33.90625 606.0625 33.90625 604.875 33.90625 C 606.0625 33.90625 606.0625 33.90625 604.875 33.90625 C 603.6875 33.90625 603.09375 33.90625 603.09375 33.90625 C 600.707031 33.90625 598.921875 32.710938 597.734375 30.328125 L 123.109375 -1159.78125 C 114.785156 -1180 100.210938 -1197.539062 79.390625 -1212.40625 C 58.578125 -1227.28125 37.46875 -1234.71875 16.0625 -1234.71875 C 12.488281 -1234.71875 10.703125 -1237.097656 10.703125 -1241.859375 C 10.703125 -1245.429688 12.488281 -1247.21875 16.0625 -1247.21875 L 378.265625 -1247.21875 C 383.023438 -1247.21875 385.40625 -1245.429688 385.40625 -1241.859375 C 385.40625 -1237.097656 383.023438 -1234.71875 378.265625 -1234.71875 C 359.234375 -1234.71875 345.554688 -1228.769531 337.234375 -1216.875 C 327.710938 -1202.601562 327.113281 -1184.757812 335.4375 -1163.34375 Z M 1696.84375 -1247.21875 C 1700.414062 -1247.21875 1702.203125 -1245.429688 1702.203125 -1241.859375 C 1702.203125 -1237.097656 1700.414062 -1234.71875 1696.84375 -1234.71875 C 1675.4375 -1234.71875 1654.320312 -1227.28125 1633.5 -1212.40625 C 1612.6875 -1197.539062 1598.117188 -1179.40625 1589.796875 -1158 L 1216.875 -221.25 L 1206.171875 -196.265625 L 1115.171875 30.328125 C 1115.171875 31.515625 1115.171875 32.109375 1115.171875 32.109375 C 1113.984375 32.109375 1113.390625 32.109375 1113.390625 32.109375 C 1112.203125 33.304688 1111.609375 33.90625 1111.609375 33.90625 C 1112.796875 33.90625 1112.796875 33.90625 1111.609375 33.90625 C 1111.609375 33.90625 1111.015625 33.90625 1109.828125 33.90625 C 1108.628906 33.90625 1108.628906 33.90625 1109.828125 33.90625 C 1108.628906 33.90625 1108.03125 33.90625 1108.03125 33.90625 C 1106.84375 32.707031 1106.25 32.109375 1106.25 32.109375 C 1105.0625 30.921875 1104.46875 30.328125 1104.46875 30.328125 L 851.109375 -603.09375 C 851.109375 -604.28125 851.109375 -604.875 851.109375 -604.875 L 629.84375 -1159.78125 C 621.519531 -1180 606.945312 -1197.539062 586.125 -1212.40625 C 565.3125 -1227.28125 544.203125 -1234.71875 522.796875 -1234.71875 C 519.222656 -1234.71875 517.4375 -1237.097656 517.4375 -1241.859375 C 517.4375 -1245.429688 519.222656 -1247.21875 522.796875 -1247.21875 L 885 -1247.21875 C 888.570312 -1247.21875 890.359375 -1245.429688 890.359375 -1241.859375 C 890.359375 -1237.097656 888.570312 -1234.71875 885 -1234.71875 C 865.96875 -1234.71875 852.289062 -1228.769531 843.96875 -1216.875 C 834.445312 -1202.601562 833.851562 -1184.757812 842.1875 -1163.34375 L 956.375 -876.078125 L 1072.359375 -1163.34375 C 1080.679688 -1184.757812 1080.082031 -1202.601562 1070.5625 -1216.875 C 1062.238281 -1228.769531 1048.5625 -1234.71875 1029.53125 -1234.71875 C 1025.957031 -1234.71875 1024.171875 -1237.097656 1024.171875 -1241.859375 C 1024.171875 -1245.429688 1025.957031 -1247.21875 1029.53125 -1247.21875 L 1109.828125 -1247.21875 C 1109.828125 -1247.21875 1116.367188 -1247.21875 1129.453125 -1247.21875 C 1142.535156 -1247.21875 1155.914062 -1247.21875 1169.59375 -1247.21875 C 1183.269531 -1247.21875 1190.109375 -1247.21875 1190.109375 -1247.21875 C 1193.679688 -1247.21875 1195.46875 -1245.429688 1195.46875 -1241.859375 C 1195.46875 -1237.097656 1193.679688 -1234.71875 1190.109375 -1234.71875 C 1168.703125 -1234.71875 1147.585938 -1227.28125 1126.765625 -1212.40625 C 1105.953125 -1197.539062 1091.382812 -1179.40625 1083.0625 -1158 L 963.515625 -858.234375 L 1209.75 -240.875 L 1579.09375 -1163.34375 C 1587.414062 -1184.757812 1586.816406 -1202.601562 1577.296875 -1216.875 C 1568.972656 -1228.769531 1555.296875 -1234.71875 1536.265625 -1234.71875 C 1531.503906 -1234.71875 1529.125 -1237.097656 1529.125 -1241.859375 C 1529.125 -1245.429688 1531.503906 -1247.21875 1536.265625 -1247.21875 Z M 1696.84375 -1247.21875 "/></g></g></g></g></g><g fill="#1e1d1d" fill-opacity="1"><g transform="translate(510.793158, 2199.211628)"><g><path d="M 15.90625 -97.6875 L 55.671875 -97.6875 C 66.003906 -97.6875 75.125 -95.613281 83.03125 -91.46875 C 90.9375 -87.332031 97.078125 -81.566406 101.453125 -74.171875 C 105.828125 -66.773438 108.015625 -58.332031 108.015625 -48.84375 C 108.015625 -39.351562 105.828125 -30.910156 101.453125 -23.515625 C 97.078125 -16.117188 90.9375 -10.347656 83.03125 -6.203125 C 75.125 -2.066406 66.003906 0 55.671875 0 L 15.90625 0 Z M 55.125 -8.9375 C 63.675781 -8.9375 71.160156 -10.632812 77.578125 -14.03125 C 84.003906 -17.425781 88.984375 -22.125 92.515625 -28.125 C 96.054688 -34.125 97.828125 -41.03125 97.828125 -48.84375 C 97.828125 -56.65625 96.054688 -63.5625 92.515625 -69.5625 C 88.984375 -75.5625 84.003906 -80.257812 77.578125 -83.65625 C 71.160156 -87.050781 63.675781 -88.75 55.125 -88.75 L 26.234375 -88.75 L 26.234375 -8.9375 Z M 55.125 -8.9375 "/></g></g></g><g fill="#1e1d1d" fill-opacity="1"><g transform="translate(695.830597, 2199.211628)"><g><path d="M 15.90625 -97.6875 L 26.234375 -97.6875 L 26.234375 0 L 15.90625 0 Z M 15.90625 -97.6875 "/></g></g></g><g fill="#1e1d1d" fill-opacity="1"><g transform="translate(807.749118, 2199.211628)"><g><path d="M 84.703125 -48.84375 L 94.609375 -48.84375 L 94.609375 -11.578125 C 90.054688 -7.578125 84.660156 -4.503906 78.421875 -2.359375 C 72.191406 -0.222656 65.632812 0.84375 58.75 0.84375 C 48.976562 0.84375 40.1875 -1.296875 32.375 -5.578125 C 24.5625 -9.859375 18.421875 -15.789062 13.953125 -23.375 C 9.484375 -30.957031 7.25 -39.445312 7.25 -48.84375 C 7.25 -58.238281 9.484375 -66.726562 13.953125 -74.3125 C 18.421875 -81.894531 24.5625 -87.820312 32.375 -92.09375 C 40.1875 -96.375 49.023438 -98.515625 58.890625 -98.515625 C 66.328125 -98.515625 73.160156 -97.328125 79.390625 -94.953125 C 85.628906 -92.585938 90.890625 -89.078125 95.171875 -84.421875 L 88.75 -77.859375 C 81.03125 -85.492188 71.21875 -89.3125 59.3125 -89.3125 C 51.40625 -89.3125 44.265625 -87.566406 37.890625 -84.078125 C 31.515625 -80.585938 26.507812 -75.75 22.875 -69.5625 C 19.25 -63.375 17.4375 -56.46875 17.4375 -48.84375 C 17.4375 -41.21875 19.25 -34.332031 22.875 -28.1875 C 26.507812 -22.050781 31.488281 -17.210938 37.8125 -13.671875 C 44.144531 -10.140625 51.265625 -8.375 59.171875 -8.375 C 69.210938 -8.375 77.722656 -10.882812 84.703125 -15.90625 Z M 84.703125 -48.84375 "/></g></g></g><g fill="#1e1d1d" fill-opacity="1"><g transform="translate(985.390931, 2199.211628)"><g><path d="M 15.90625 -97.6875 L 26.234375 -97.6875 L 26.234375 0 L 15.90625 0 Z M 15.90625 -97.6875 "/></g></g></g><g fill="#1e1d1d" fill-opacity="1"><g transform="translate(1097.309418, 2199.211628)"><g><path d="M 34.890625 -88.75 L 0.5625 -88.75 L 0.5625 -97.6875 L 79.546875 -97.6875 L 79.546875 -88.75 L 45.21875 -88.75 L 45.21875 0 L 34.890625 0 Z M 34.890625 -88.75 "/></g></g></g><g fill="#1e1d1d" fill-opacity="1"><g transform="translate(1247.182786, 2199.211628)"><g><path d="M 77.171875 -26.09375 L 22.75 -26.09375 L 11.03125 0 L 0.28125 0 L 44.9375 -97.6875 L 55.125 -97.6875 L 99.78125 0 L 88.890625 0 Z M 73.40625 -34.46875 L 49.953125 -86.9375 L 26.515625 -34.46875 Z M 73.40625 -34.46875 "/></g></g></g><g fill="#1e1d1d" fill-opacity="1"><g transform="translate(1417.010386, 2199.211628)"><g><path d="M 15.90625 -97.6875 L 26.234375 -97.6875 L 26.234375 -8.9375 L 80.9375 -8.9375 L 80.9375 0 L 15.90625 0 Z M 15.90625 -97.6875 "/></g></g></g><g fill="#1e1d1d" fill-opacity="1"><g transform="translate(1568.976901, 2199.211628)"><g/></g></g><g fill="#1e1d1d" fill-opacity="1"><g transform="translate(1675.31374, 2199.211628)"><g><path d="M 84.984375 -8.9375 L 84.984375 0 L 15.90625 0 L 15.90625 -97.6875 L 82.890625 -97.6875 L 82.890625 -88.75 L 26.234375 -88.75 L 26.234375 -54 L 76.75 -54 L 76.75 -45.21875 L 26.234375 -45.21875 L 26.234375 -8.9375 Z M 84.984375 -8.9375 "/></g></g></g><g fill="#1e1d1d" fill-opacity="1"><g transform="translate(1838.443455, 2199.211628)"><g><path d="M 26.375 0.84375 C 20.789062 0.84375 15.625 -0.363281 10.875 -2.78125 C 6.132812 -5.207031 2.273438 -8.65625 -0.703125 -13.125 L 5.4375 -20.09375 C 10.832031 -12.09375 17.859375 -8.09375 26.515625 -8.09375 C 38.609375 -8.09375 44.65625 -15.253906 44.65625 -29.578125 L 44.65625 -88.75 L 8.9375 -88.75 L 8.9375 -97.6875 L 54.84375 -97.6875 L 54.84375 -30 C 54.84375 -19.769531 52.445312 -12.070312 47.65625 -6.90625 C 42.863281 -1.738281 35.769531 0.84375 26.375 0.84375 Z M 26.375 0.84375 "/></g></g></g><g fill="#1e1d1d" fill-opacity="1"><g transform="translate(1978.130435, 2199.211628)"><g><path d="M 84.984375 -8.9375 L 84.984375 0 L 15.90625 0 L 15.90625 -97.6875 L 82.890625 -97.6875 L 82.890625 -88.75 L 26.234375 -88.75 L 26.234375 -54 L 76.75 -54 L 76.75 -45.21875 L 26.234375 -45.21875 L 26.234375 -8.9375 Z M 84.984375 -8.9375 "/></g></g></g><g fill="#1e1d1d" fill-opacity="1"><g transform="translate(2141.26006, 2199.211628)"><g><path d="M 97.546875 -97.6875 L 97.546875 0 L 89.03125 0 L 26.234375 -79.265625 L 26.234375 0 L 15.90625 0 L 15.90625 -97.6875 L 24.421875 -97.6875 L 87.359375 -18.421875 L 87.359375 -97.6875 Z M 97.546875 -97.6875 "/></g></g></g><g fill="#1e1d1d" fill-opacity="1"><g transform="translate(2324.483432, 2199.211628)"><g><path d="M 15.90625 -97.6875 L 55.671875 -97.6875 C 66.003906 -97.6875 75.125 -95.613281 83.03125 -91.46875 C 90.9375 -87.332031 97.078125 -81.566406 101.453125 -74.171875 C 105.828125 -66.773438 108.015625 -58.332031 108.015625 -48.84375 C 108.015625 -39.351562 105.828125 -30.910156 101.453125 -23.515625 C 97.078125 -16.117188 90.9375 -10.347656 83.03125 -6.203125 C 75.125 -2.066406 66.003906 0 55.671875 0 L 15.90625 0 Z M 55.125 -8.9375 C 63.675781 -8.9375 71.160156 -10.632812 77.578125 -14.03125 C 84.003906 -17.425781 88.984375 -22.125 92.515625 -28.125 C 96.054688 -34.125 97.828125 -41.03125 97.828125 -48.84375 C 97.828125 -56.65625 96.054688 -63.5625 92.515625 -69.5625 C 88.984375 -75.5625 84.003906 -80.257812 77.578125 -83.65625 C 71.160156 -87.050781 63.675781 -88.75 55.125 -88.75 L 26.234375 -88.75 L 26.234375 -8.9375 Z M 55.125 -8.9375 "/></g></g></g><g fill="#1e1d1d" fill-opacity="1"><g transform="translate(2509.520864, 2199.211628)"><g><path d="M 58.609375 0.84375 C 48.929688 0.84375 40.160156 -1.316406 32.296875 -5.640625 C 24.441406 -9.972656 18.300781 -15.90625 13.875 -23.4375 C 9.457031 -30.976562 7.25 -39.445312 7.25 -48.84375 C 7.25 -58.238281 9.457031 -66.703125 13.875 -74.234375 C 18.300781 -81.773438 24.441406 -87.707031 32.296875 -92.03125 C 40.160156 -96.351562 48.929688 -98.515625 58.609375 -98.515625 C 68.285156 -98.515625 77.003906 -96.375 84.765625 -92.09375 C 92.535156 -87.820312 98.65625 -81.894531 103.125 -74.3125 C 107.59375 -66.726562 109.828125 -58.238281 109.828125 -48.84375 C 109.828125 -39.445312 107.59375 -30.957031 103.125 -23.375 C 98.65625 -15.789062 92.535156 -9.859375 84.765625 -5.578125 C 77.003906 -1.296875 68.285156 0.84375 58.609375 0.84375 Z M 58.609375 -8.375 C 66.328125 -8.375 73.300781 -10.117188 79.53125 -13.609375 C 85.769531 -17.097656 90.65625 -21.9375 94.1875 -28.125 C 97.726562 -34.3125 99.5 -41.21875 99.5 -48.84375 C 99.5 -56.46875 97.726562 -63.375 94.1875 -69.5625 C 90.65625 -75.75 85.769531 -80.585938 79.53125 -84.078125 C 73.300781 -87.566406 66.328125 -89.3125 58.609375 -89.3125 C 50.890625 -89.3125 43.890625 -87.566406 37.609375 -84.078125 C 31.328125 -80.585938 26.394531 -75.75 22.8125 -69.5625 C 19.226562 -63.375 17.4375 -56.46875 17.4375 -48.84375 C 17.4375 -41.21875 19.226562 -34.3125 22.8125 -28.125 C 26.394531 -21.9375 31.328125 -17.097656 37.609375 -13.609375 C 43.890625 -10.117188 50.890625 -8.375 58.609375 -8.375 Z M 58.609375 -8.375 "/></g></g></g><g fill="#1e1d1d" fill-opacity="1"><g transform="translate(2696.372356, 2199.211628)"><g><path d="M 117.359375 -97.6875 L 117.359375 0 L 107.453125 0 L 107.453125 -78.140625 L 69.078125 -12.421875 L 64.1875 -12.421875 L 25.8125 -77.734375 L 25.8125 0 L 15.90625 0 L 15.90625 -97.6875 L 24.421875 -97.6875 L 66.84375 -25.265625 L 108.84375 -97.6875 Z M 117.359375 -97.6875 "/></g></g></g><g fill="#1e1d1d" fill-opacity="1"><g transform="translate(2899.41053, 2199.211628)"><g><path d="M 42.84375 0.84375 C 35.582031 0.84375 28.625 -0.316406 21.96875 -2.640625 C 15.320312 -4.972656 10.1875 -8.046875 6.5625 -11.859375 L 10.609375 -19.8125 C 14.140625 -16.28125 18.832031 -13.421875 24.6875 -11.234375 C 30.550781 -9.046875 36.601562 -7.953125 42.84375 -7.953125 C 51.582031 -7.953125 58.140625 -9.554688 62.515625 -12.765625 C 66.890625 -15.972656 69.078125 -20.140625 69.078125 -25.265625 C 69.078125 -29.171875 67.890625 -32.285156 65.515625 -34.609375 C 63.140625 -36.929688 60.226562 -38.71875 56.78125 -39.96875 C 53.34375 -41.226562 48.554688 -42.601562 42.421875 -44.09375 C 35.066406 -45.957031 29.203125 -47.75 24.828125 -49.46875 C 20.460938 -51.1875 16.722656 -53.8125 13.609375 -57.34375 C 10.492188 -60.882812 8.9375 -65.679688 8.9375 -71.734375 C 8.9375 -76.660156 10.238281 -81.144531 12.84375 -85.1875 C 15.445312 -89.238281 19.445312 -92.472656 24.84375 -94.890625 C 30.238281 -97.304688 36.9375 -98.515625 44.9375 -98.515625 C 50.519531 -98.515625 55.984375 -97.75 61.328125 -96.21875 C 66.679688 -94.6875 71.3125 -92.570312 75.21875 -89.875 L 71.734375 -81.640625 C 67.640625 -84.335938 63.265625 -86.359375 58.609375 -87.703125 C 53.953125 -89.054688 49.394531 -89.734375 44.9375 -89.734375 C 36.375 -89.734375 29.929688 -88.082031 25.609375 -84.78125 C 21.285156 -81.476562 19.125 -77.21875 19.125 -72 C 19.125 -68.09375 20.304688 -64.953125 22.671875 -62.578125 C 25.046875 -60.210938 28.023438 -58.398438 31.609375 -57.140625 C 35.191406 -55.890625 40.003906 -54.519531 46.046875 -53.03125 C 53.210938 -51.257812 59.003906 -49.515625 63.421875 -47.796875 C 67.835938 -46.078125 71.582031 -43.472656 74.65625 -39.984375 C 77.726562 -36.492188 79.265625 -31.769531 79.265625 -25.8125 C 79.265625 -20.882812 77.9375 -16.394531 75.28125 -12.34375 C 72.632812 -8.300781 68.566406 -5.09375 63.078125 -2.71875 C 57.585938 -0.34375 50.84375 0.84375 42.84375 0.84375 Z M 42.84375 0.84375 "/></g></g></g><g fill="#1e1d1d" fill-opacity="1"><g transform="translate(3055.004977, 2199.211628)"><g><path d="M 26.234375 -88.75 L 26.234375 -50.375 L 76.75 -50.375 L 76.75 -41.453125 L 26.234375 -41.453125 L 26.234375 0 L 15.90625 0 L 15.90625 -97.6875 L 82.890625 -97.6875 L 82.890625 -88.75 Z M 26.234375 -88.75 "/></g></g></g><g fill="#1e1d1d" fill-opacity="1"><g transform="translate(3213.111211, 2199.211628)"><g><path d="M 58.609375 0.84375 C 48.929688 0.84375 40.160156 -1.316406 32.296875 -5.640625 C 24.441406 -9.972656 18.300781 -15.90625 13.875 -23.4375 C 9.457031 -30.976562 7.25 -39.445312 7.25 -48.84375 C 7.25 -58.238281 9.457031 -66.703125 13.875 -74.234375 C 18.300781 -81.773438 24.441406 -87.707031 32.296875 -92.03125 C 40.160156 -96.351562 48.929688 -98.515625 58.609375 -98.515625 C 68.285156 -98.515625 77.003906 -96.375 84.765625 -92.09375 C 92.535156 -87.820312 98.65625 -81.894531 103.125 -74.3125 C 107.59375 -66.726562 109.828125 -58.238281 109.828125 -48.84375 C 109.828125 -39.445312 107.59375 -30.957031 103.125 -23.375 C 98.65625 -15.789062 92.535156 -9.859375 84.765625 -5.578125 C 77.003906 -1.296875 68.285156 0.84375 58.609375 0.84375 Z M 58.609375 -8.375 C 66.328125 -8.375 73.300781 -10.117188 79.53125 -13.609375 C 85.769531 -17.097656 90.65625 -21.9375 94.1875 -28.125 C 97.726562 -34.3125 99.5 -41.21875 99.5 -48.84375 C 99.5 -56.46875 97.726562 -63.375 94.1875 -69.5625 C 90.65625 -75.75 85.769531 -80.585938 79.53125 -84.078125 C 73.300781 -87.566406 66.328125 -89.3125 58.609375 -89.3125 C 50.890625 -89.3125 43.890625 -87.566406 37.609375 -84.078125 C 31.328125 -80.585938 26.394531 -75.75 22.8125 -69.5625 C 19.226562 -63.375 17.4375 -56.46875 17.4375 -48.84375 C 17.4375 -41.21875 19.226562 -34.3125 22.8125 -28.125 C 26.394531 -21.9375 31.328125 -17.097656 37.609375 -13.609375 C 43.890625 -10.117188 50.890625 -8.375 58.609375 -8.375 Z M 58.609375 -8.375 "/></g></g></g><g fill="#1e1d1d" fill-opacity="1"><g transform="translate(3399.962703, 2199.211628)"><g><path d="M 82.609375 0 L 60.28125 -31.390625 C 57.769531 -31.117188 55.164062 -30.984375 52.46875 -30.984375 L 26.234375 -30.984375 L 26.234375 0 L 15.90625 0 L 15.90625 -97.6875 L 52.46875 -97.6875 C 64.9375 -97.6875 74.703125 -94.707031 81.765625 -88.75 C 88.835938 -82.800781 92.375 -74.613281 92.375 -64.1875 C 92.375 -56.5625 90.441406 -50.117188 86.578125 -44.859375 C 82.722656 -39.609375 77.210938 -35.816406 70.046875 -33.484375 L 93.921875 0 Z M 52.1875 -39.765625 C 61.863281 -39.765625 69.257812 -41.90625 74.375 -46.1875 C 79.488281 -50.46875 82.046875 -56.46875 82.046875 -64.1875 C 82.046875 -72.09375 79.488281 -78.160156 74.375 -82.390625 C 69.257812 -86.628906 61.863281 -88.75 52.1875 -88.75 L 26.234375 -88.75 L 26.234375 -39.765625 Z M 52.1875 -39.765625 "/></g></g></g><g fill="#1e1d1d" fill-opacity="1"><g transform="translate(3570.627505, 2199.211628)"><g><path d="M 117.359375 -97.6875 L 117.359375 0 L 107.453125 0 L 107.453125 -78.140625 L 69.078125 -12.421875 L 64.1875 -12.421875 L 25.8125 -77.734375 L 25.8125 0 L 15.90625 0 L 15.90625 -97.6875 L 24.421875 -97.6875 L 66.84375 -25.265625 L 108.84375 -97.6875 Z M 117.359375 -97.6875 "/></g></g></g><g fill="#1e1d1d" fill-opacity="1"><g transform="translate(3773.665679, 2199.211628)"><g><path d="M 15.90625 -97.6875 L 26.234375 -97.6875 L 26.234375 0 L 15.90625 0 Z M 15.90625 -97.6875 "/></g></g></g><g fill="#1e1d1d" fill-opacity="1"><g transform="translate(3885.584166, 2199.211628)"><g><path d="M 15.90625 -97.6875 L 55.671875 -97.6875 C 66.003906 -97.6875 75.125 -95.613281 83.03125 -91.46875 C 90.9375 -87.332031 97.078125 -81.566406 101.453125 -74.171875 C 105.828125 -66.773438 108.015625 -58.332031 108.015625 -48.84375 C 108.015625 -39.351562 105.828125 -30.910156 101.453125 -23.515625 C 97.078125 -16.117188 90.9375 -10.347656 83.03125 -6.203125 C 75.125 -2.066406 66.003906 0 55.671875 0 L 15.90625 0 Z M 55.125 -8.9375 C 63.675781 -8.9375 71.160156 -10.632812 77.578125 -14.03125 C 84.003906 -17.425781 88.984375 -22.125 92.515625 -28.125 C 96.054688 -34.125 97.828125 -41.03125 97.828125 -48.84375 C 97.828125 -56.65625 96.054688 -63.5625 92.515625 -69.5625 C 88.984375 -75.5625 84.003906 -80.257812 77.578125 -83.65625 C 71.160156 -87.050781 63.675781 -88.75 55.125 -88.75 L 26.234375 -88.75 L 26.234375 -8.9375 Z M 55.125 -8.9375 "/></g></g></g><g fill="#1e1d1d" fill-opacity="1"><g transform="translate(4070.621411, 2199.211628)"><g><path d="M 15.90625 -97.6875 L 26.234375 -97.6875 L 26.234375 -8.9375 L 80.9375 -8.9375 L 80.9375 0 L 15.90625 0 Z M 15.90625 -97.6875 "/></g></g></g><g fill="#1e1d1d" fill-opacity="1"><g transform="translate(4222.587926, 2199.211628)"><g><path d="M 15.90625 -97.6875 L 26.234375 -97.6875 L 26.234375 0 L 15.90625 0 Z M 15.90625 -97.6875 "/></g></g></g><g fill="#1e1d1d" fill-opacity="1"><g transform="translate(4334.506413, 2199.211628)"><g><path d="M 97.546875 -97.6875 L 97.546875 0 L 89.03125 0 L 26.234375 -79.265625 L 26.234375 0 L 15.90625 0 L 15.90625 -97.6875 L 24.421875 -97.6875 L 87.359375 -18.421875 L 87.359375 -97.6875 Z M 97.546875 -97.6875 "/></g></g></g><g fill="#1e1d1d" fill-opacity="1"><g transform="translate(4517.729785, 2199.211628)"><g><path d="M 84.703125 -48.84375 L 94.609375 -48.84375 L 94.609375 -11.578125 C 90.054688 -7.578125 84.660156 -4.503906 78.421875 -2.359375 C 72.191406 -0.222656 65.632812 0.84375 58.75 0.84375 C 48.976562 0.84375 40.1875 -1.296875 32.375 -5.578125 C 24.5625 -9.859375 18.421875 -15.789062 13.953125 -23.375 C 9.484375 -30.957031 7.25 -39.445312 7.25 -48.84375 C 7.25 -58.238281 9.484375 -66.726562 13.953125 -74.3125 C 18.421875 -81.894531 24.5625 -87.820312 32.375 -92.09375 C 40.1875 -96.375 49.023438 -98.515625 58.890625 -98.515625 C 66.328125 -98.515625 73.160156 -97.328125 79.390625 -94.953125 C 85.628906 -92.585938 90.890625 -89.078125 95.171875 -84.421875 L 88.75 -77.859375 C 81.03125 -85.492188 71.21875 -89.3125 59.3125 -89.3125 C 51.40625 -89.3125 44.265625 -87.566406 37.890625 -84.078125 C 31.515625 -80.585938 26.507812 -75.75 22.875 -69.5625 C 19.25 -63.375 17.4375 -56.46875 17.4375 -48.84375 C 17.4375 -41.21875 19.25 -34.332031 22.875 -28.1875 C 26.507812 -22.050781 31.488281 -17.210938 37.8125 -13.671875 C 44.144531 -10.140625 51.265625 -8.375 59.171875 -8.375 C 69.210938 -8.375 77.722656 -10.882812 84.703125 -15.90625 Z M 84.703125 -48.84375 "/></g></g></g></svg>